# xmcd
#
# Track frame offsets: 
#        150
#        14813
#        34734
#        47254
#
# Disc length: 1102 seconds
#
# Revision: 1
# Processed by: cddbd v1.5.2PL0 Copyright (c) Steve Scherf et al.
# Submitted via: ExactAudioCopy v0.99pb5
#
DISCID=29044c04
DTITLE=Talis Kimberley - About Damn Time
DYEAR=2000
DGENRE=Folk
TTITLE0=Archetype Café
TTITLE1=Rapunzel
TTITLE2=Thin Blue Mean Streak
TTITLE3=Harbouring Hopes
EXTD=
EXTT0=
EXTT1=
EXTT2=
EXTT3=
PLAYORDER=
